<svg xmlns="http://www.w3.org/2000/svg" xmlns:xlink="http://www.w3.org/1999/xlink" viewBox="0 0 112.83 112.83"><defs><style>.cls-1{fill:none;}.cls-2{fill:#ff9c8f;}.cls-3{clip-path:url(#clip-path);}.cls-4{fill:#ff7765;}.cls-5{clip-path:url(#clip-path-2);}.cls-6{fill:#db2c15;}.cls-7{fill:#aa1b08;}</style><clipPath id="clip-path"><polygon id="SVGID" class="cls-1" points="71.18 11.41 11.91 70.68 11.91 72.37 25.95 86.41 26.41 86.41 85.91 26.91 85.91 25.45 71.87 11.41 71.18 11.41"/></clipPath><clipPath id="clip-path-2"><polygon id="SVGID-2" data-name="SVGID" class="cls-1" points="86.41 26.41 26.91 85.91 26.91 87.37 40.96 101.41 41.64 101.41 100.91 42.14 100.91 40.45 86.87 26.41 86.41 26.41"/></clipPath></defs><title>Recurso 2</title><g id="Capa_2" data-name="Capa 2"><g id="hoja1"><path class="cls-2" d="M15.12,67.48,67.49,15.11A42.76,42.76,0,0,0,15.12,67.48"/><polyline class="cls-1" points="51.96 0.41 0.91 51.45 0.91 53.28 15.05 67.41 15.18 67.41 66.91 15.68 66.91 14.54 52.78 0.41"/><polyline class="cls-1" points="52.37 0 0 52.37 15.12 67.48 67.48 15.11 52.37 0"/><g class="cls-3"><path class="cls-4" d="M26.19,86.64,86.65,26.18A42.55,42.55,0,0,0,67.49,15.11L15.12,67.48A42.55,42.55,0,0,0,26.19,86.64"/></g><rect class="cls-1" x="6.11" y="38.17" width="85.5" height="21.38" transform="translate(-20.24 48.86) rotate(-45)"/><g class="cls-5"><path class="cls-6" d="M45.35,97.71,97.72,45.34A42.55,42.55,0,0,0,86.65,26.18L26.19,86.64A42.55,42.55,0,0,0,45.35,97.71"/></g><rect class="cls-1" x="21.22" y="53.28" width="85.5" height="21.37" transform="translate(-26.5 63.97) rotate(-45)"/><path class="cls-7" d="M97.72,45.34,45.35,97.71A42.76,42.76,0,0,0,97.72,45.34"/><polygon id="SVGID-3" data-name="SVGID" class="cls-1" points="97.64 45.41 45.91 97.14 45.91 98.28 60.05 112.41 60.87 112.41 111.91 61.37 111.91 59.54 97.78 45.41 97.64 45.41"/><rect class="cls-1" x="42.05" y="68.4" width="74.06" height="21.37" transform="translate(-32.76 79.08) rotate(-45)"/></g></g></svg>